<?xml version="1.0" encoding="utf-8"?>
<!-- Generator: Adobe Illustrator 16.0.0, SVG Export Plug-In . SVG Version: 6.00 Build 0)  -->
<!DOCTYPE svg PUBLIC "-//W3C//DTD SVG 1.1//EN" "http://www.w3.org/Graphics/SVG/1.1/DTD/svg11.dtd">
<svg version="1.1" id="Capa_1" xmlns="http://www.w3.org/2000/svg" xmlns:xlink="http://www.w3.org/1999/xlink" x="0px" y="0px"
	 width="66.328px" height="66.333px" viewBox="12.819 12.816 66.328 66.333" enable-background="new 12.819 12.816 66.328 66.333"
	 xml:space="preserve">
<g>
	<path fill="#FCFCFC" d="M77.572,35.87L48.2,65.244c-1.679,1.675-4.405,1.675-6.085,0c-0.837-0.84-1.256-1.939-1.256-3.043
		c0-1.102,0.418-2.201,1.256-3.04l31.508-31.505c-5.941-8.943-16.1-14.84-27.64-14.84c-18.317,0-33.164,14.85-33.164,33.165
		c0,3.528,0.556,6.924,1.577,10.113L43.769,26.72c1.676-1.678,4.404-1.678,6.081,0c0.838,0.838,1.258,1.939,1.258,3.041
		c0,1.102-0.42,2.204-1.258,3.042L18.346,64.309c5.939,8.942,16.099,14.84,27.637,14.84c18.316,0,33.164-14.851,33.164-33.166
		C79.146,42.455,78.591,39.06,77.572,35.87z M29.763,66.502c-1.148,0-2.228-0.445-3.04-1.258c-1.676-1.676-1.676-4.405,0-6.083
		l32.439-32.44c1.678-1.678,4.406-1.678,6.083,0c0.813,0.811,1.263,1.893,1.263,3.042c0,1.147-0.449,2.227-1.263,3.041l-32.44,32.44
		C31.992,66.057,30.912,66.502,29.763,66.502z"/>
</g>
</svg>
