<?xml version="1.0" encoding="utf-8"?>
<!-- Generator: Adobe Illustrator 16.0.0, SVG Export Plug-In . SVG Version: 6.00 Build 0)  -->
<!DOCTYPE svg PUBLIC "-//W3C//DTD SVG 1.1//EN" "http://www.w3.org/Graphics/SVG/1.1/DTD/svg11.dtd">
<svg version="1.1" id="Layer_1" xmlns="http://www.w3.org/2000/svg" xmlns:xlink="http://www.w3.org/1999/xlink" x="0px" y="0px"
	 width="434px" height="127px" viewBox="0 0 434 127" enable-background="new 0 0 434 127" xml:space="preserve">
<path fill="#5FB3FF" enable-background="new    " d="M23.507,19.454v32.644h18.149c4.709,0,7.856-0.711,9.439-2.132
	c2.111-1.867,3.289-5.156,3.532-9.867h2.253v28.746h-2.253c-0.569-4.021-1.138-6.597-1.706-7.734
	c-0.73-1.42-1.929-2.537-3.593-3.349c-1.665-0.813-4.223-1.219-7.674-1.219H23.507v27.223c0,3.654,0.162,5.877,0.488,6.668
	c0.324,0.793,0.893,1.422,1.706,1.889c0.812,0.466,2.354,0.7,4.628,0.7h14.008c4.669,0,8.058-0.326,10.17-0.976
	c2.111-0.648,4.141-1.927,6.09-3.836c2.516-2.519,5.096-6.313,7.734-11.388h2.436l-7.125,20.706H0v-2.253h2.923
	c1.949,0,3.796-0.466,5.542-1.4c1.3-0.649,2.182-1.625,2.649-2.924c0.467-1.3,0.701-3.96,0.701-7.979V29.319
	c0-5.237-0.528-8.466-1.583-9.683C8.771,18.013,6.334,17.2,2.924,17.2H0v-2.253h63.642l0.913,18.088H62.18
	c-0.853-4.343-1.797-7.328-2.832-8.953c-1.035-1.623-2.569-2.862-4.598-3.714c-1.625-0.609-4.488-0.914-8.588-0.914H23.507z"/>
<path fill="#5FB3FF" enable-background="new    " d="M102.899,89.492c-5.725,4.425-9.318,6.982-10.779,7.672
	c-2.192,1.014-4.528,1.524-7.004,1.524c-3.857,0-7.035-1.319-9.531-3.96c-2.497-2.639-3.746-6.109-3.746-10.415
	c0-2.719,0.609-5.075,1.827-7.064c1.665-2.76,4.557-5.359,8.68-7.796c4.12-2.436,10.971-5.398,20.553-8.891V58.37
	c0-5.562-0.884-9.378-2.65-11.45c-1.766-2.072-4.334-3.106-7.703-3.106c-2.559,0-4.589,0.691-6.09,2.071
	c-1.543,1.381-2.315,2.964-2.315,4.75l0.122,3.532c0,1.867-0.477,3.309-1.431,4.323c-0.955,1.016-2.204,1.523-3.747,1.523
	c-1.503,0-2.73-0.527-3.684-1.583c-0.955-1.055-1.432-2.498-1.432-4.324c0-3.491,1.785-6.699,5.359-9.623
	c3.573-2.924,8.588-4.385,15.043-4.385c4.953,0,9.014,0.832,12.181,2.497c2.395,1.259,4.161,3.227,5.299,5.908
	c0.73,1.746,1.096,5.32,1.096,10.719v18.941c0,5.319,0.102,8.579,0.305,9.774c0.202,1.197,0.537,2.002,1.005,2.405
	c0.467,0.405,1.005,0.609,1.614,0.609c0.65,0,1.218-0.142,1.706-0.426c0.852-0.529,2.496-2.011,4.933-4.446v3.411
	c-4.547,6.089-8.892,9.134-13.033,9.134c-1.99,0-3.573-0.69-4.75-2.069C103.548,95.177,102.939,92.821,102.899,89.492z
	 M102.899,85.532V64.277c-6.131,2.437-10.09,4.163-11.876,5.176c-3.208,1.789-5.501,3.655-6.882,5.604
	c-1.381,1.949-2.07,4.081-2.07,6.395c0,2.924,0.872,5.351,2.62,7.277c1.745,1.929,3.755,2.894,6.028,2.894
	C93.804,91.623,97.864,89.594,102.899,85.532z"/>
<path fill="#5FB3FF" enable-background="new    " d="M157.508,40.1v19.001h-2.01c-1.543-5.968-3.522-10.027-5.938-12.18
	c-2.417-2.151-5.492-3.228-9.226-3.228c-2.844,0-5.138,0.752-6.882,2.253c-1.746,1.503-2.619,3.167-2.619,4.995
	c0,2.274,0.649,4.223,1.949,5.846c1.257,1.665,3.815,3.431,7.673,5.299l8.893,4.323c8.241,4.021,12.364,9.318,12.364,15.896
	c0,5.076-1.919,9.167-5.755,12.272c-3.836,3.106-8.13,4.659-12.881,4.659c-3.411,0-7.308-0.61-11.693-1.828
	c-1.34-0.405-2.437-0.608-3.289-0.608c-0.934,0-1.666,0.527-2.192,1.583h-2.011V78.469h2.011c1.136,5.686,3.309,9.968,6.517,12.849
	c3.206,2.885,6.799,4.325,10.779,4.325c2.801,0,5.086-0.822,6.852-2.467c1.766-1.645,2.649-3.623,2.649-5.938
	c0-2.802-0.985-5.155-2.953-7.064c-1.97-1.909-5.897-4.325-11.785-7.249c-5.888-2.923-9.744-5.562-11.571-7.917
	c-1.828-2.314-2.741-5.237-2.741-8.77c0-4.587,1.573-8.424,4.72-11.51c3.146-3.085,7.216-4.629,12.21-4.629
	c2.192,0,4.851,0.468,7.979,1.401c2.07,0.609,3.45,0.914,4.14,0.914c0.65,0,1.158-0.142,1.523-0.426s0.792-0.914,1.278-1.888
	H157.508z"/>
<path fill="#5FB3FF" enable-background="new    " d="M159.551,41.745h26.005v2.253h-1.278c-1.828,0-3.197,0.396-4.111,1.188
	c-0.913,0.792-1.37,1.776-1.37,2.953c0,1.583,0.67,3.776,2.01,6.578l13.581,28.137l12.485-30.817
	c0.689-1.664,1.035-3.308,1.035-4.933c0-0.731-0.142-1.278-0.426-1.645c-0.325-0.445-0.832-0.801-1.522-1.065
	c-0.691-0.263-1.908-0.396-3.654-0.396v-2.253h18.15v2.253c-1.504,0.163-2.66,0.487-3.472,0.975
	c-0.813,0.488-1.706,1.401-2.68,2.741c-0.366,0.569-1.057,2.132-2.071,4.689l-22.715,55.665c-2.192,5.398-5.066,9.479-8.618,12.241
	c-3.553,2.761-6.973,4.14-10.262,4.14c-2.396,0-4.365-0.69-5.908-2.069c-1.543-1.38-2.315-2.965-2.315-4.75
	c0-1.706,0.559-3.075,1.674-4.111c1.116-1.034,2.649-1.553,4.599-1.553c1.34,0,3.167,0.447,5.48,1.34
	c1.624,0.609,2.639,0.914,3.046,0.914c1.218,0,2.547-0.63,3.989-1.889c1.44-1.258,2.892-3.695,4.354-7.307l3.959-9.684
	l-20.036-42.083c-0.61-1.257-1.584-2.82-2.925-4.689c-1.015-1.422-1.848-2.376-2.497-2.863c-0.934-0.649-2.436-1.218-4.506-1.706
	L159.551,41.745L159.551,41.745z"/>
<path fill="#FFFFFF" d="M262.863,97.529l-31.912-69.488v55.177c0,5.075,0.549,8.243,1.645,9.501
	c1.502,1.705,3.875,2.559,7.125,2.559h2.924v2.253h-28.746v-2.253h2.924c3.492,0,5.968-1.057,7.429-3.168
	c0.893-1.298,1.34-4.264,1.34-8.892V29.259c0-3.654-0.406-6.292-1.217-7.917c-0.57-1.177-1.615-2.162-3.139-2.955
	c-1.521-0.792-3.967-1.188-7.338-1.188v-2.253h23.387l29.963,64.617l29.477-64.617h23.387V17.2h-2.863
	c-3.531,0-6.031,1.057-7.49,3.167c-0.895,1.299-1.34,4.263-1.34,8.892v53.959c0,5.075,0.568,8.243,1.705,9.501
	c1.502,1.705,3.877,2.559,7.125,2.559h2.863v2.253h-35.08v-2.253h2.924c3.531,0,6.008-1.057,7.43-3.168
	c0.893-1.298,1.34-4.264,1.34-8.892V28.042l-31.854,69.488H262.863z"/>
<path fill="#FFFFFF" d="M330.811,62.755c-0.041,8.283,1.969,14.78,6.029,19.487c4.059,4.712,8.83,7.066,14.313,7.066
	c3.654,0,6.83-1.006,9.531-3.015c2.699-2.01,4.963-5.45,6.789-10.322l1.889,1.217c-0.854,5.564-3.33,10.629-7.43,15.195
	c-4.102,4.568-9.238,6.853-15.408,6.853c-6.699,0-12.436-2.609-17.205-7.827c-4.771-5.215-7.156-12.23-7.156-21.04
	c0-9.542,2.447-16.981,7.34-22.322c4.891-5.338,11.031-8.009,18.422-8.009c6.252,0,11.389,2.062,15.408,6.182
	s6.031,9.633,6.031,16.535H330.811z M330.811,59.223h25.822c-0.203-3.572-0.631-6.09-1.279-7.553
	c-1.016-2.273-2.527-4.059-4.535-5.358c-2.012-1.299-4.111-1.949-6.303-1.949c-3.373,0-6.387,1.31-9.045,3.928
	C332.811,50.91,331.258,54.554,330.811,59.223z"/>
<path fill="#5FB3FF" enable-background="new    " d="M412.039,91.258c-2.723,2.841-5.383,4.881-7.98,6.12
	c-2.6,1.238-5.398,1.858-8.406,1.858c-6.088,0-11.408-2.549-15.955-7.646c-4.547-5.093-6.822-11.64-6.822-19.639
	c0-7.998,2.518-15.317,7.553-21.956c5.033-6.638,11.51-9.958,19.426-9.958c4.914,0,8.975,1.563,12.182,4.69V34.437
	c0-6.374-0.152-10.292-0.455-11.754c-0.305-1.463-0.783-2.457-1.432-2.984c-0.65-0.527-1.461-0.792-2.436-0.792
	c-1.059,0-2.459,0.325-4.203,0.975l-0.793-2.131l16.627-6.822h2.74v64.495c0,6.538,0.152,10.527,0.457,11.968
	c0.305,1.442,0.791,2.447,1.461,3.015c0.67,0.569,1.451,0.853,2.346,0.853c1.096,0,2.557-0.345,4.385-1.036l0.67,2.132
	l-16.564,6.883h-2.803v-7.979H412.039z M412.039,86.995V58.248c-0.244-2.76-0.977-5.278-2.195-7.552
	c-1.217-2.273-2.83-3.989-4.84-5.146c-2.01-1.157-3.969-1.737-5.877-1.737c-3.574,0-6.762,1.605-9.563,4.812
	c-3.693,4.223-5.543,10.394-5.543,18.515c0,8.202,1.789,14.484,5.359,18.848c3.574,4.366,7.555,6.549,11.938,6.549
	C405.012,92.537,408.586,90.688,412.039,86.995z"/>
</svg>
